<svg id="visual" viewBox="0 0 900 600" width="900" height="600" xmlns="http://www.w3.org/2000/svg" xmlns:xlink="http://www.w3.org/1999/xlink" version="1.1"><g><g transform="translate(632 304)"><path d="M0 -13.1L11.4 6.6L-11.4 6.6Z" fill="#A5C9CA"></path></g><g transform="translate(199 243)"><path d="M0 -7L6.1 3.5L-6.1 3.5Z" fill="#A5C9CA"></path></g><g transform="translate(720 282)"><path d="M0 -9L7.8 4.5L-7.8 4.5Z" fill="#A5C9CA"></path></g><g transform="translate(93 410)"><path d="M0 -11L9.5 5.5L-9.5 5.5Z" fill="#A5C9CA"></path></g><g transform="translate(583 242)"><path d="M0 -6L5.2 3L-5.2 3Z" fill="#A5C9CA"></path></g><g transform="translate(885 65)"><path d="M0 -8L6.9 4L-6.9 4Z" fill="#A5C9CA"></path></g><g transform="translate(733 445)"><path d="M0 -2L1.7 1L-1.7 1Z" fill="#A5C9CA"></path></g><g transform="translate(255 415)"><path d="M0 -4L3.5 2L-3.5 2Z" fill="#A5C9CA"></path></g><g transform="translate(883 343)"><path d="M0 -11L9.5 5.5L-9.5 5.5Z" fill="#A5C9CA"></path></g><g transform="translate(863 494)"><path d="M0 -5L4.3 2.5L-4.3 2.5Z" fill="#A5C9CA"></path></g><g transform="translate(110 67)"><path d="M0 -8L6.9 4L-6.9 4Z" fill="#A5C9CA"></path></g><g transform="translate(309 53)"><path d="M0 -7L6.1 3.5L-6.1 3.5Z" fill="#A5C9CA"></path></g><g transform="translate(677 69)"><path d="M0 -9L7.8 4.5L-7.8 4.5Z" fill="#A5C9CA"></path></g><g transform="translate(871 292)"><path d="M0 -9L7.8 4.5L-7.8 4.5Z" fill="#A5C9CA"></path></g><g transform="translate(389 217)"><path d="M0 -12L10.4 6L-10.4 6Z" fill="#A5C9CA"></path></g><g transform="translate(550 73)"><path d="M0 -11L9.5 5.5L-9.5 5.5Z" fill="#A5C9CA"></path></g><g transform="translate(594 207)"><path d="M0 -7L6.1 3.5L-6.1 3.5Z" fill="#A5C9CA"></path></g><g transform="translate(184 108)"><path d="M0 -6L5.2 3L-5.2 3Z" fill="#A5C9CA"></path></g><g transform="translate(519 146)"><path d="M0 -5L4.3 2.5L-4.3 2.5Z" fill="#A5C9CA"></path></g><g transform="translate(658 435)"><path d="M0 -3L2.6 1.5L-2.6 1.5Z" fill="#A5C9CA"></path></g><g transform="translate(704 42)"><path d="M0 -6L5.2 3L-5.2 3Z" fill="#A5C9CA"></path></g><g transform="translate(373 120)"><path d="M0 -9L7.8 4.5L-7.8 4.5Z" fill="#A5C9CA"></path></g><g transform="translate(525 220)"><path d="M0 -10L8.7 5L-8.7 5Z" fill="#A5C9CA"></path></g><g transform="translate(180 348)"><path d="M0 -5L4.3 2.5L-4.3 2.5Z" fill="#A5C9CA"></path></g><g transform="translate(185 203)"><path d="M0 -8L6.9 4L-6.9 4Z" fill="#A5C9CA"></path></g><g transform="translate(263 531)"><path d="M0 -11L9.5 5.5L-9.5 5.5Z" fill="#A5C9CA"></path></g><g transform="translate(136 562)"><path d="M0 -4L3.5 2L-3.5 2Z" fill="#A5C9CA"></path></g><g transform="translate(615 113)"><path d="M0 -8L6.9 4L-6.9 4Z" fill="#A5C9CA"></path></g><g transform="translate(437 272)"><path d="M0 -9L7.8 4.5L-7.8 4.5Z" fill="#A5C9CA"></path></g><g transform="translate(645 369)"><path d="M0 -3L2.6 1.5L-2.6 1.5Z" fill="#A5C9CA"></path></g><g transform="translate(869 440)"><path d="M0 -5L4.3 2.5L-4.3 2.5Z" fill="#A5C9CA"></path></g><g transform="translate(237 593)"><path d="M0 -8L6.9 4L-6.9 4Z" fill="#A5C9CA"></path></g><g transform="translate(814 455)"><path d="M0 -3L2.6 1.5L-2.6 1.5Z" fill="#A5C9CA"></path></g><g transform="translate(779 458)"><path d="M0 -5L4.3 2.5L-4.3 2.5Z" fill="#A5C9CA"></path></g><g transform="translate(176 426)"><path d="M0 -2L1.7 1L-1.7 1Z" fill="#A5C9CA"></path></g><g transform="translate(833 567)"><path d="M0 -5L4.3 2.5L-4.3 2.5Z" fill="#A5C9CA"></path></g><g transform="translate(290 541)"><path d="M0 -2L1.7 1L-1.7 1Z" fill="#A5C9CA"></path></g><g transform="translate(450 44)"><path d="M0 -11L9.5 5.5L-9.5 5.5Z" fill="#A5C9CA"></path></g><g transform="translate(451 442)"><path d="M0 -10L8.7 5L-8.7 5Z" fill="#A5C9CA"></path></g><g transform="translate(730 477)"><path d="M0 -10L8.7 5L-8.7 5Z" fill="#A5C9CA"></path></g><g transform="translate(81 200)"><path d="M0 -4L3.5 2L-3.5 2Z" fill="#A5C9CA"></path></g><g transform="translate(714 343)"><path d="M0 -2L1.7 1L-1.7 1Z" fill="#A5C9CA"></path></g><g transform="translate(388 164)"><path d="M0 -7L6.1 3.5L-6.1 3.5Z" fill="#A5C9CA"></path></g><g transform="translate(795 342)"><path d="M0 -2L1.7 1L-1.7 1Z" fill="#A5C9CA"></path></g><g transform="translate(658 87)"><path d="M0 -2L1.7 1L-1.7 1Z" fill="#A5C9CA"></path></g><g transform="translate(25 361)"><path d="M0 -12L10.4 6L-10.4 6Z" fill="#A5C9CA"></path></g><g transform="translate(348 253)"><path d="M0 -7L6.1 3.5L-6.1 3.5Z" fill="#A5C9CA"></path></g><g transform="translate(446 160)"><path d="M0 -6L5.2 3L-5.2 3Z" fill="#A5C9CA"></path></g><g transform="translate(148 8)"><path d="M0 -9L7.8 4.5L-7.8 4.5Z" fill="#A5C9CA"></path></g><g transform="translate(113 16)"><path d="M0 -5L4.3 2.5L-4.3 2.5Z" fill="#A5C9CA"></path></g><g transform="translate(102 509)"><path d="M0 -1L0.9 0.5L-0.9 0.5Z" fill="#A5C9CA"></path></g><g transform="translate(582 451)"><path d="M0 -10L8.7 5L-8.7 5Z" fill="#A5C9CA"></path></g><g transform="translate(559 336)"><path d="M0 -6L5.2 3L-5.2 3Z" fill="#A5C9CA"></path></g><g transform="translate(706 553)"><path d="M0 -8L6.9 4L-6.9 4Z" fill="#A5C9CA"></path></g><g transform="translate(24 142)"><path d="M0 -6L5.2 3L-5.2 3Z" fill="#A5C9CA"></path></g><g transform="translate(8 85)"><path d="M0 -11L9.5 5.5L-9.5 5.5Z" fill="#A5C9CA"></path></g><g transform="translate(749 151)"><path d="M0 -4L3.5 2L-3.5 2Z" fill="#A5C9CA"></path></g><g transform="translate(615 344)"><path d="M0 -10L8.7 5L-8.7 5Z" fill="#A5C9CA"></path></g><g transform="translate(421 46)"><path d="M0 -2L1.7 1L-1.7 1Z" fill="#A5C9CA"></path></g><g transform="translate(149 378)"><path d="M0 -1L0.9 0.5L-0.9 0.5Z" fill="#A5C9CA"></path></g><g transform="translate(898 555)"><path d="M0 -11L9.5 5.5L-9.5 5.5Z" fill="#A5C9CA"></path></g><g transform="translate(176 46)"><path d="M0 -12L10.4 6L-10.4 6Z" fill="#A5C9CA"></path></g><g transform="translate(839 108)"><path d="M0 -8L6.9 4L-6.9 4Z" fill="#A5C9CA"></path></g><g transform="translate(782 570)"><path d="M0 -2L1.7 1L-1.7 1Z" fill="#A5C9CA"></path></g><g transform="translate(197 478)"><path d="M0 -7L6.1 3.5L-6.1 3.5Z" fill="#A5C9CA"></path></g><g transform="translate(37 104)"><path d="M0 -4L3.5 2L-3.5 2Z" fill="#A5C9CA"></path></g><g transform="translate(850 378)"><path d="M0 -7L6.1 3.5L-6.1 3.5Z" fill="#A5C9CA"></path></g><g transform="translate(290 21)"><path d="M0 -6L5.2 3L-5.2 3Z" fill="#A5C9CA"></path></g><g transform="translate(176 585)"><path d="M0 -2L1.7 1L-1.7 1Z" fill="#A5C9CA"></path></g><g transform="translate(298 502)"><path d="M0 -11L9.5 5.5L-9.5 5.5Z" fill="#A5C9CA"></path></g><g transform="translate(741 215)"><path d="M0 -10L8.7 5L-8.7 5Z" fill="#A5C9CA"></path></g><g transform="translate(272 107)"><path d="M0 -11L9.5 5.5L-9.5 5.5Z" fill="#A5C9CA"></path></g><g transform="translate(555 42)"><path d="M0 -8L6.9 4L-6.9 4Z" fill="#A5C9CA"></path></g><g transform="translate(778 153)"><path d="M0 -5L4.3 2.5L-4.3 2.5Z" fill="#A5C9CA"></path></g><g transform="translate(872 15)"><path d="M0 -1L0.9 0.5L-0.9 0.5Z" fill="#A5C9CA"></path></g><g transform="translate(896 162)"><path d="M0 -12L10.4 6L-10.4 6Z" fill="#A5C9CA"></path></g><g transform="translate(120 288)"><path d="M0 -11L9.5 5.5L-9.5 5.5Z" fill="#A5C9CA"></path></g><g transform="translate(140 515)"><path d="M0 -10L8.7 5L-8.7 5Z" fill="#A5C9CA"></path></g><g transform="translate(585 594)"><path d="M0 -8L6.9 4L-6.9 4Z" fill="#A5C9CA"></path></g><g transform="translate(692 327)"><path d="M0 -10L8.7 5L-8.7 5Z" fill="#A5C9CA"></path></g><g transform="translate(156 89)"><path d="M0 -4L3.5 2L-3.5 2Z" fill="#A5C9CA"></path></g><g transform="translate(752 405)"><path d="M0 -10L8.7 5L-8.7 5Z" fill="#A5C9CA"></path></g><g transform="translate(344 543)"><path d="M0 -2L1.7 1L-1.7 1Z" fill="#A5C9CA"></path></g><g transform="translate(496 428)"><path d="M0 -9L7.8 4.5L-7.8 4.5Z" fill="#A5C9CA"></path></g><g transform="translate(665 257)"><path d="M0 -10L8.7 5L-8.7 5Z" fill="#A5C9CA"></path></g><g transform="translate(597 166)"><path d="M0 -2L1.7 1L-1.7 1Z" fill="#A5C9CA"></path></g><g transform="translate(484 490)"><path d="M0 -3L2.6 1.5L-2.6 1.5Z" fill="#A5C9CA"></path></g><g transform="translate(257 290)"><path d="M0 -6L5.2 3L-5.2 3Z" fill="#A5C9CA"></path></g><g transform="translate(478 351)"><path d="M0 -9L7.8 4.5L-7.8 4.5Z" fill="#A5C9CA"></path></g><g transform="translate(415 330)"><path d="M0 -3L2.6 1.5L-2.6 1.5Z" fill="#A5C9CA"></path></g><g transform="translate(385 579)"><path d="M0 -9L7.8 4.5L-7.8 4.5Z" fill="#A5C9CA"></path></g><g transform="translate(839 46)"><path d="M0 -9L7.8 4.5L-7.8 4.5Z" fill="#A5C9CA"></path></g><g transform="translate(154 202)"><path d="M0 -12L10.4 6L-10.4 6Z" fill="#A5C9CA"></path></g><g transform="translate(658 391)"><path d="M0 -6L5.2 3L-5.2 3Z" fill="#A5C9CA"></path></g><g transform="translate(584 61)"><path d="M0 -10L8.7 5L-8.7 5Z" fill="#A5C9CA"></path></g><g transform="translate(616 562)"><path d="M0 -4L3.5 2L-3.5 2Z" fill="#A5C9CA"></path></g><g transform="translate(732 553)"><path d="M0 -1L0.9 0.5L-0.9 0.5Z" fill="#A5C9CA"></path></g><g transform="translate(220 549)"><path d="M0 -3L2.6 1.5L-2.6 1.5Z" fill="#A5C9CA"></path></g><g transform="translate(658 513)"><path d="M0 -4L3.5 2L-3.5 2Z" fill="#A5C9CA"></path></g><g transform="translate(423 538)"><path d="M0 -5L4.3 2.5L-4.3 2.5Z" fill="#A5C9CA"></path></g><g transform="translate(855 591)"><path d="M0 -6L5.2 3L-5.2 3Z" fill="#A5C9CA"></path></g><g transform="translate(486 221)"><path d="M0 -1L0.9 0.5L-0.9 0.5Z" fill="#A5C9CA"></path></g><g transform="translate(292 328)"><path d="M0 -1L0.9 0.5L-0.9 0.5Z" fill="#A5C9CA"></path></g><g transform="translate(132 252)"><path d="M0 -1L0.9 0.5L-0.9 0.5Z" fill="#A5C9CA"></path></g><g transform="translate(657 478)"><path d="M0 -10L8.7 5L-8.7 5Z" fill="#A5C9CA"></path></g><g transform="translate(101 538)"><path d="M0 -4L3.5 2L-3.5 2Z" fill="#A5C9CA"></path></g><g transform="translate(638 53)"><path d="M0 -10L8.7 5L-8.7 5Z" fill="#A5C9CA"></path></g><g transform="translate(325 573)"><path d="M0 -10L8.7 5L-8.7 5Z" fill="#A5C9CA"></path></g><g transform="translate(223 125)"><path d="M0 -6L5.2 3L-5.2 3Z" fill="#A5C9CA"></path></g><g transform="translate(40 415)"><path d="M0 -4L3.5 2L-3.5 2Z" fill="#A5C9CA"></path></g><g transform="translate(458 323)"><path d="M0 -10L8.7 5L-8.7 5Z" fill="#A5C9CA"></path></g><g transform="translate(1 113)"><path d="M0 -6L5.2 3L-5.2 3Z" fill="#A5C9CA"></path></g><g transform="translate(398 93)"><path d="M0 -2L1.7 1L-1.7 1Z" fill="#A5C9CA"></path></g><g transform="translate(340 167)"><path d="M0 -11L9.5 5.5L-9.5 5.5Z" fill="#A5C9CA"></path></g><g transform="translate(259 70)"><path d="M0 -9L7.8 4.5L-7.8 4.5Z" fill="#A5C9CA"></path></g><g transform="translate(536 451)"><path d="M0 -3L2.6 1.5L-2.6 1.5Z" fill="#A5C9CA"></path></g><g transform="translate(186 147)"><path d="M0 -6L5.2 3L-5.2 3Z" fill="#A5C9CA"></path></g><g transform="translate(822 268)"><path d="M0 -3L2.6 1.5L-2.6 1.5Z" fill="#A5C9CA"></path></g><g transform="translate(697 434)"><path d="M0 -11L9.5 5.5L-9.5 5.5Z" fill="#A5C9CA"></path></g><g transform="translate(215 364)"><path d="M0 -3L2.6 1.5L-2.6 1.5Z" fill="#A5C9CA"></path></g><g transform="translate(712 141)"><path d="M0 -5L4.3 2.5L-4.3 2.5Z" fill="#A5C9CA"></path></g><g transform="translate(411 182)"><path d="M0 -6L5.2 3L-5.2 3Z" fill="#A5C9CA"></path></g><g transform="translate(65 597)"><path d="M0 -3L2.6 1.5L-2.6 1.5Z" fill="#A5C9CA"></path></g><g transform="translate(156 143)"><path d="M0 -5L4.3 2.5L-4.3 2.5Z" fill="#A5C9CA"></path></g><g transform="translate(374 49)"><path d="M0 -2L1.7 1L-1.7 1Z" fill="#A5C9CA"></path></g><g transform="translate(410 279)"><path d="M0 -12L10.4 6L-10.4 6Z" fill="#A5C9CA"></path></g><g transform="translate(722 65)"><path d="M0 -1L0.9 0.5L-0.9 0.5Z" fill="#A5C9CA"></path></g><g transform="translate(516 515)"><path d="M0 -10L8.7 5L-8.7 5Z" fill="#A5C9CA"></path></g><g transform="translate(474 171)"><path d="M0 -8L6.9 4L-6.9 4Z" fill="#A5C9CA"></path></g><g transform="translate(168 231)"><path d="M0 -12L10.4 6L-10.4 6Z" fill="#A5C9CA"></path></g><g transform="translate(289 593)"><path d="M0 -5L4.3 2.5L-4.3 2.5Z" fill="#A5C9CA"></path></g><g transform="translate(796 417)"><path d="M0 -1L0.9 0.5L-0.9 0.5Z" fill="#A5C9CA"></path></g><g transform="translate(324 405)"><path d="M0 -1L0.9 0.5L-0.9 0.5Z" fill="#A5C9CA"></path></g><g transform="translate(791 62)"><path d="M0 -4L3.5 2L-3.5 2Z" fill="#A5C9CA"></path></g><g transform="translate(118 384)"><path d="M0 -11L9.5 5.5L-9.5 5.5Z" fill="#A5C9CA"></path></g><g transform="translate(614 68)"><path d="M0 -8L6.9 4L-6.9 4Z" fill="#A5C9CA"></path></g><g transform="translate(722 381)"><path d="M0 -1L0.9 0.5L-0.9 0.5Z" fill="#A5C9CA"></path></g><g transform="translate(281 481)"><path d="M0 -11L9.5 5.5L-9.5 5.5Z" fill="#A5C9CA"></path></g><g transform="translate(855 341)"><path d="M0 -11L9.5 5.5L-9.5 5.5Z" fill="#A5C9CA"></path></g><g transform="translate(834 204)"><path d="M0 -11L9.5 5.5L-9.5 5.5Z" fill="#A5C9CA"></path></g><g transform="translate(867 170)"><path d="M0 -8L6.9 4L-6.9 4Z" fill="#A5C9CA"></path></g><g transform="translate(689 247)"><path d="M0 -11L9.5 5.5L-9.5 5.5Z" fill="#A5C9CA"></path></g><g transform="translate(29 238)"><path d="M0 -2L1.7 1L-1.7 1Z" fill="#A5C9CA"></path></g><g transform="translate(550 380)"><path d="M0 -12L10.4 6L-10.4 6Z" fill="#A5C9CA"></path></g><g transform="translate(30 204)"><path d="M0 -9L7.8 4.5L-7.8 4.5Z" fill="#A5C9CA"></path></g><g transform="translate(420 419)"><path d="M0 -4L3.5 2L-3.5 2Z" fill="#A5C9CA"></path></g></g></svg>